<?xml version="1.0" encoding="UTF-8"?>
<svg width="16px" height="16px" viewBox="0 0 16 16" version="1.1" xmlns="http://www.w3.org/2000/svg" xmlns:xlink="http://www.w3.org/1999/xlink">
    <!-- Generator: Sketch 51.3 (57544) - http://www.bohemiancoding.com/sketch -->
    <title>icons/expand-folder</title>
    <desc>Created with Sketch.</desc>
    <defs></defs>
    <g id="Symbols" stroke="none" stroke-width="1" fill="none" fill-rule="evenodd">
        <g id="icons/expand-folder">
            <g>
                <path d="M8,14 L8,12 L14,12 L14,5 L10,5 C9.7,5 9.5,4.9 9.3,4.7 L6.6,2 L4,2 L4,4 L2,4 L2,1 C2,0.4 2.4,0 3,0 L7,0 C7.3,0 7.5,0.1 7.7,0.3 L10.4,3 L15,3 C15.6,3 16,3.4 16,4 L16,13 C16,13.6 15.6,14 15,14 L8,14 Z" id="Combined-Shape" fill="#9199A3" fill-rule="nonzero"></path>
                <polyline id="Shape" stroke="#9199A3" stroke-width="2" stroke-linecap="round" stroke-linejoin="round" points="5 9 3 7 1 9"></polyline>
                <polyline id="Shape" stroke="#9199A3" stroke-width="2" stroke-linecap="round" stroke-linejoin="round" transform="translate(3.000000, 14.000000) scale(1, -1) translate(-3.000000, -14.000000) " points="5 15 3 13 1 15"></polyline>
            </g>
        </g>
    </g>
</svg>